<svg width="96" height="48" viewBox="0 0 96 48" fill="none" xmlns="http://www.w3.org/2000/svg">
<g clip-path="url(#clip0_627_5576)">
<path d="M21.583 1.71859C15.7855 -1.36074 9.43164 0.632556 9.43164 0.632556C9.43164 0.632556 10.3588 5.67837 16.411 8.20127C22.843 10.8828 29.5722 9.95993 29.5722 9.95993C29.5722 9.95993 27.6464 4.93647 21.583 1.71859Z" fill="#72BF44"/>
<path d="M32.8034 34.811C30.7642 37.0347 28.1585 38.6616 25.2655 39.5171C20.5202 40.9495 16.0386 39.8389 13.6481 37.2981C12.4998 36.1578 11.7741 34.6603 11.5905 33.0523C20.6096 34.3149 30.0242 33.2869 34.0456 28.6523C36.6863 25.6288 37.3253 20.7618 34.3204 16.7394C31.6975 13.24 25.6364 10.9048 18.4336 11.6333C8.98325 12.5942 0.493609 19.0434 0.0199767 29.4545C-0.467061 40.0959 8.00471 48.002 19.6042 48.002C27.0304 48.002 33.181 45.5059 36.2708 42.3216C36.2708 42.2925 36.2506 42.2568 36.2395 42.2255C35.267 39.6803 34.1189 37.2058 32.8034 34.8199V34.811ZM17.636 19.3115C20.7481 18.1473 25.0354 18.2813 25.9246 21.0635C26.6775 23.4076 24.4992 26.0556 19.9438 26.8422C17.6092 27.2467 14.2647 27.3249 11.5011 26.6188C11.7022 24.8512 13.1856 20.9785 17.636 19.3137V19.3115Z" fill="#F58220"/>
<path fill-rule="evenodd" clip-rule="evenodd" d="M56.5364 12.5234L46.789 36.1927C45.5043 32.4676 42.7206 26.9368 39.4164 22.3223C38.5987 25.5871 37.0549 29.4329 34.584 32.729C37.0214 36.3201 39.5616 42.3178 40.9736 47.0821H52.2L67.4635 12.5234H56.5364Z" fill="#72BF44"/>
<path fill-rule="evenodd" clip-rule="evenodd" d="M91.051 14.979C87.6328 12.2639 83.8527 11.4036 79.9832 11.2606C76.7172 11.1765 73.4578 11.594 70.3184 12.4986L66.4377 21.4371C66.4758 21.4766 66.5161 21.5139 66.5584 21.5488C70.4368 19.0907 75.2402 18.36 79.1275 18.9008C83.2338 19.4729 85.1596 22.217 85.1596 24.8963C79.5989 24.0919 73.6361 24.293 69.0137 25.6338C62.0365 27.6449 59.4181 33.2315 60.1062 38.4159C60.7564 43.2941 65.3788 47.7544 73.4171 47.7544C79.2258 47.7544 84.0135 43.8282 85.3875 41.274V46.8159L95.9839 46.8002V26.8449C95.9839 20.836 94.1207 17.417 91.051 14.979ZM78.8103 38.5075C75.6981 39.6717 71.4109 39.5377 70.5195 36.7578C69.7688 34.4136 71.9471 31.7656 76.5024 30.9768C78.8371 30.5745 82.1793 30.4963 84.9452 31.2002C84.7418 32.9723 83.2606 36.8427 78.8103 38.5075Z" fill="#72BF44"/>
</g>
<defs>
<clipPath id="clip0_627_5576">
<rect width="96" height="48" fill="white"/>
</clipPath>
</defs>
</svg>
