<svg width="215" height="48" viewBox="0 0 215 48" fill="none" xmlns="http://www.w3.org/2000/svg">
<g clip-path="url(#clip0_627_5607)">
<path fill-rule="evenodd" clip-rule="evenodd" d="M21.45 0C21.0527 0.318408 18.5102 3.02488 16.5239 6.44776C15.1732 8.83582 14.2992 11.0647 13.6636 13.4527C11.995 12.2587 10.1676 11.2239 8.02239 10.3483C4.36755 8.83582 0.633255 8.27861 0.156536 8.27861C0.0770832 8.75622 -0.240729 12.4975 0.315442 16.398C0.553802 18.3881 1.03052 20.1393 1.66614 21.8109C3.0963 21.4925 4.60591 21.4129 6.11552 21.4129C11.995 21.4129 17.3979 23.5622 21.45 27.2239C25.5815 23.6418 30.9049 21.4129 36.7844 21.4129C38.294 21.4129 39.8036 21.5721 41.2338 21.8109C41.8694 20.1393 42.2667 18.3881 42.5845 16.398C43.1406 12.4975 42.8228 8.75622 42.6639 8.27861C42.1872 8.27861 38.4529 8.83582 34.7981 10.3483C32.6528 11.2239 30.8254 12.2587 29.1569 13.4527C28.6007 11.1443 27.7267 8.83582 26.2966 6.44776C24.3897 3.02488 21.8472 0.318408 21.45 0Z" fill="#ED7B00"/>
<path fill-rule="evenodd" clip-rule="evenodd" d="M2.06641 24.5172C2.46367 31.9201 7.1514 38.2883 13.746 41.0744C14.4611 36.4574 16.5269 32.3181 19.5461 29.0545C15.8912 25.95 11.2035 24.1191 6.11851 24.1191C4.76781 24.1191 3.41711 24.2783 2.06641 24.5172Z" fill="#80B925"/>
<path fill-rule="evenodd" clip-rule="evenodd" d="M15.8115 47.3629L17.0828 47.9997C17.7979 46.1689 18.6718 44.338 19.6253 42.5868C20.2609 42.6664 20.8171 42.6664 21.4527 42.6664C31.861 42.6664 40.3625 34.6266 40.8392 24.5172C39.568 24.2783 38.2173 24.1191 36.7871 24.1191C26.2993 24.1191 17.6389 31.9201 16.2882 42.0296H16.3677C20.4198 36.139 25.9815 31.6813 32.3378 29.2933C32.4967 29.2137 32.5761 29.2137 32.735 29.1341C26.4582 32.7958 22.0089 37.3331 18.5924 42.4276C17.6389 44.0196 16.6855 45.6913 15.8115 47.3629Z" fill="#80B925"/>
<path fill-rule="evenodd" clip-rule="evenodd" d="M140.158 21.0956H131.18V14.3294H139.681C143.416 14.3294 144.448 15.7623 144.448 17.7523C144.528 19.9812 142.859 21.0956 140.158 21.0956ZM153.268 34.7871L145.481 26.2697C149.375 24.7573 152.473 22.2896 152.473 17.7523C152.473 12.021 148.342 8.99609 142.144 8.99609H121.884V9.1553C122.519 9.2349 123.235 11.0657 123.235 13.3742V32.5583C123.235 34.8667 126.174 36.7772 128.002 36.7772H132.769V36.618C131.895 36.5384 131.1 35.6628 131.1 34.1503V26.4289H137.139C138.251 27.7822 143.654 34.5483 144.29 35.2647C144.29 35.2647 145.561 36.8568 148.501 36.8568H155.89V36.618C155.175 36.618 154.142 35.5832 153.268 34.7871Z" fill="#ED7B00"/>
<path fill-rule="evenodd" clip-rule="evenodd" d="M174.398 8.99609V9.1553C174.795 9.2349 175.431 10.9861 175.431 13.3742V26.5881C175.431 29.7722 172.809 31.0458 169.154 31.0458C165.499 31.0458 162.877 29.7722 162.877 26.5881V13.3742C162.877 10.9861 163.592 9.2349 163.91 9.1553V8.99609H152.628V9.1553C153.661 9.2349 154.455 10.5881 154.455 13.3742V25.0757C154.455 31.7623 158.11 37.414 169.154 37.414C180.198 37.414 183.853 31.7623 183.853 25.0757V13.3742C183.853 10.5881 184.648 9.2349 185.68 9.1553V8.99609H174.398Z" fill="#ED7B00"/>
<path fill-rule="evenodd" clip-rule="evenodd" d="M83.825 8.99609V9.1553C84.0634 9.1553 84.6195 10.0309 84.3812 10.9065C84.2223 11.5434 83.1894 13.4538 82.7921 14.5682L79.8524 20.7772L75.403 30.0906L70.9536 20.7772L68.0139 14.5682C67.5371 13.4538 66.5837 11.5434 66.4248 10.9065C66.1864 10.0309 66.7426 9.1553 66.981 9.1553V8.99609H56.4932V9.1553C57.1288 9.1553 57.5261 9.87172 57.7644 10.3493C60.8631 16.9563 68.8878 34.0707 69.1262 34.7871C69.444 35.7424 69.2057 36.618 68.57 36.618V36.7772H75.403H82.236V36.618C81.6003 36.5384 81.362 35.7424 81.6798 34.7871C81.9181 34.0707 89.9429 17.0359 93.0416 10.3493C93.2799 9.87172 93.6772 9.1553 94.3128 9.1553V8.99609H83.825Z" fill="#ED7B00"/>
<path fill-rule="evenodd" clip-rule="evenodd" d="M215 28.0205C214.603 17.0355 194.104 21.6524 194.025 17.1151C193.945 14.329 199.587 14.329 201.176 14.329C205.307 14.329 208.962 15.2046 210.869 17.5927L214.126 10.1897L213.888 10.1101C213.57 10.1897 213.173 10.3489 212.299 10.2693C210.948 10.1897 205.704 8.59766 199.666 8.59766C189.337 8.59766 185.841 14.0902 185.921 17.9907C186.238 28.6574 206.737 23.8016 206.896 28.737C206.976 31.2046 202.844 31.4434 201.255 31.4434C197.044 31.4434 191.165 30.2494 189.099 28.8962C189.019 28.8962 189.019 28.8166 188.94 28.8166C188.86 28.737 188.86 28.737 188.781 28.6574C188.145 28.1797 187.748 27.7021 187.748 27.7021L185.762 34.8663L186 34.9459C186.477 34.7071 187.033 34.7071 187.748 34.7867C188.225 34.8663 195.376 37.0952 201.493 37.0952C211.107 37.2544 215.159 32.9559 215 28.0205Z" fill="#ED7B00"/>
<path fill-rule="evenodd" clip-rule="evenodd" d="M103.847 24.9956L99.3177 24.916L103.767 15.6026L108.216 24.916L103.847 24.9956ZM123.154 36.6175C122.677 36.6175 121.723 35.9807 121.088 34.7071C117.91 27.9409 110.918 12.8961 110.282 11.3041C109.647 9.95084 110.044 9.15482 110.679 9.07522V8.91602H96.9341V9.07522C97.5697 9.15482 97.967 9.95084 97.3314 11.3041C96.6163 12.8961 89.6244 27.9409 86.5257 34.7071C85.9696 35.9807 85.0161 36.6175 84.46 36.6175V36.7767H93.756C94.5505 34.9459 95.9807 31.921 96.3779 31.125H96.5368H103.767H103.847H111.077H111.236C111.633 31.921 113.063 34.9459 113.858 36.7767H123.154V36.6175Z" fill="#ED7B00"/>
</g>
<defs>
<clipPath id="clip0_627_5607">
<rect width="215" height="48" fill="white"/>
</clipPath>
</defs>
</svg>
