<svg width="220" height="36" viewBox="0 0 220 36" fill="none" xmlns="http://www.w3.org/2000/svg">
<path d="M55.5078 7.20299H61.1185L67.1631 22.7895L73.3574 7.20299H78.8783L85.0726 22.7895L91.1172 7.20299H96.668L88.0051 28.7671H82.3345L76.1104 13.5093L69.8413 28.7671H64.1708L55.5078 7.20299Z" fill="white"/>
<path d="M100.304 7.20299H105.585V28.7671H100.304V7.20299Z" fill="white"/>
<path d="M117.046 14.3014V28.7821H111.869V7.20299H117.884L129.883 21.7435V7.20299H135.06V28.7671H129.045L117.046 14.3014Z" fill="white"/>
<path d="M158.506 18.665H146.626V28.7671H141.359V7.20299H146.641V13.9875H158.521V7.20299H163.802V28.7671H158.521V18.665H158.506Z" fill="white"/>
<path d="M186.544 7.20299H191.826V18.9788C191.826 25.5691 187.442 29.2005 180.605 29.2005C173.782 29.2005 169.413 25.5691 169.413 18.9788V7.20299H174.695V18.8443C174.695 22.4458 177.014 24.538 180.62 24.538C184.016 24.538 186.574 22.4757 186.574 18.8443V7.20299H186.544Z" fill="white"/>
<path d="M197.438 28.7821V7.20299H211.292C215.482 7.20299 218.294 9.26526 218.294 12.7173C218.294 14.2565 217.651 15.5865 216.723 16.4832C218.668 17.6189 220 19.6513 220 22.0872C220 26.0922 216.888 28.7671 212.265 28.7671H197.438V28.7821ZM202.704 11.5517V15.0037H211.158C212.235 15.0037 213.043 14.4209 213.043 13.3151C213.043 12.1793 212.235 11.5517 211.098 11.5517H202.704ZM202.704 19.2478V24.4483H211.995C213.566 24.4483 214.584 23.462 214.584 21.863C214.584 20.2341 213.537 19.2478 211.966 19.2478H202.704Z" fill="white"/>
<path d="M16.877 28.797H8.43848V36H16.877V28.797Z" fill="#5DCA00"/>
<path d="M8.43852 7.20299H0V28.797H8.43852V7.20299Z" fill="#5DCA00"/>
<path d="M42.1768 7.20299H33.7383V28.797H42.1768V7.20299Z" fill="#5DCA00"/>
<path d="M25.3155 0H16.877V28.7821H25.3155V0Z" fill="#5DCA00"/>
<path d="M33.7393 28.797H25.3008V36H33.7393V28.797Z" fill="#5DCA00"/>
</svg>
