<?xml version="1.0" encoding="utf-8"?>
<!-- Generator: Adobe Illustrator 26.4.1, SVG Export Plug-In . SVG Version: 6.00 Build 0)  -->
<svg version="1.1" id="Layer_1" xmlns="http://www.w3.org/2000/svg" xmlns:xlink="http://www.w3.org/1999/xlink" x="0px" y="0px"
	 viewBox="0 0 1271.1 1131.7" style="enable-background:new 0 0 1271.1 1131.7;" xml:space="preserve">
<style type="text/css">
	.st0{fill:#11161D;}
	.st1{fill:#5DCA00;}
</style>
<g>
	<g>
		<path class="st0" d="M148.1,855.7h33.3l35.8,92.5l36.8-92.5h32.7l36.8,92.5l35.8-92.5h32.9l-51.4,128h-33.6l-36.9-90.5l-37.1,90.5
			h-33.6L148.1,855.7z"/>
		<path class="st0" d="M413.6,855.7h31.3v128h-31.3V855.7z"/>
		<path class="st0" d="M512.9,897.7v85.9h-30.7v-128h35.7l71.1,86.3v-86.3h30.7v128H584L512.9,897.7z"/>
		<path class="st0" d="M758.6,923.7h-70.4v60H657v-128h31.3v40.2h70.4v-40.2h31.3v128h-31.3V923.7z"/>
		<path class="st0" d="M924.9,855.7h31.3v69.9c0,39.1-26,60.7-66.6,60.7c-40.4,0-66.4-21.6-66.4-60.7v-69.9h31.3v69.1
			c0,21.4,13.7,33.8,35.1,33.8c20.1,0,35.3-12.3,35.3-33.8V855.7z"/>
		<path class="st0" d="M989.4,983.7v-128h82.1c24.9,0,41.5,12.3,41.5,32.7c0,9.1-3.8,17-9.3,22.3c11.5,6.8,19.4,18.8,19.4,33.3
			c0,23.8-18.5,39.7-45.9,39.7H989.4z M1020.7,881.5v20.5h50.1c6.4,0,11.2-3.5,11.2-10.1c0-6.8-4.8-10.4-11.5-10.4H1020.7z
			 M1020.7,927.2v30.9h55c9.3,0,15.4-5.9,15.4-15.4c0-9.7-6.2-15.5-15.5-15.5H1020.7z"/>
	</g>
	<g>
		<rect x="413.5" y="654" class="st1" width="148.1" height="126.5"/>
		<rect x="265.4" y="274.5" class="st1" width="148.1" height="379.5"/>
		<rect x="857.7" y="274.5" class="st1" width="148" height="379.5"/>
		<rect x="561.5" y="148.1" class="st1" width="148" height="506"/>
		<rect x="709.6" y="654" class="st1" width="148.1" height="126.5"/>
	</g>
</g>
</svg>
